<svg width="187" height="226" viewBox="0 0 187 226" fill="none" xmlns="http://www.w3.org/2000/svg">
<g clip-path="url(#clip0_1_2)">
<rect width="187" height="226" fill="white"/>
<path d="M70.8409 211.273C70.8409 213.114 70.5085 214.705 69.8438 216.045C69.179 217.386 68.267 218.42 67.108 219.148C65.9489 219.875 64.625 220.239 63.1364 220.239C61.6477 220.239 60.3239 219.875 59.1648 219.148C58.0057 218.42 57.0938 217.386 56.429 216.045C55.7642 214.705 55.4318 213.114 55.4318 211.273C55.4318 209.432 55.7642 207.841 56.429 206.5C57.0938 205.159 58.0057 204.125 59.1648 203.398C60.3239 202.67 61.6477 202.307 63.1364 202.307C64.625 202.307 65.9489 202.67 67.108 203.398C68.267 204.125 69.179 205.159 69.8438 206.5C70.5085 207.841 70.8409 209.432 70.8409 211.273ZM68.7955 211.273C68.7955 209.761 68.5426 208.486 68.0369 207.446C67.5369 206.406 66.858 205.619 66 205.085C65.1477 204.551 64.1932 204.284 63.1364 204.284C62.0795 204.284 61.1222 204.551 60.2642 205.085C59.4119 205.619 58.733 206.406 58.2273 207.446C57.7273 208.486 57.4773 209.761 57.4773 211.273C57.4773 212.784 57.7273 214.06 58.2273 215.099C58.733 216.139 59.4119 216.926 60.2642 217.46C61.1222 217.994 62.0795 218.261 63.1364 218.261C64.1932 218.261 65.1477 217.994 66 217.46C66.858 216.926 67.5369 216.139 68.0369 215.099C68.5426 214.06 68.7955 212.784 68.7955 211.273ZM82.3722 214.648V206.909H84.3835V220H82.3722V217.784H82.2358C81.929 218.449 81.4517 219.014 80.804 219.48C80.1563 219.94 79.3381 220.17 78.3494 220.17C77.5312 220.17 76.804 219.991 76.1676 219.634C75.5313 219.27 75.0313 218.724 74.6676 217.997C74.304 217.264 74.1222 216.341 74.1222 215.227V206.909H76.1335V215.091C76.1335 216.045 76.4006 216.807 76.9347 217.375C77.4744 217.943 78.1619 218.227 78.9972 218.227C79.4972 218.227 80.0057 218.099 80.5227 217.844C81.0455 217.588 81.483 217.196 81.8352 216.668C82.1932 216.139 82.3722 215.466 82.3722 214.648ZM93.7607 206.909V208.614H86.9766V206.909H93.7607ZM88.9538 203.773H90.9652V216.25C90.9652 216.818 91.0476 217.244 91.2124 217.528C91.3828 217.807 91.5987 217.994 91.8601 218.091C92.1271 218.182 92.4084 218.227 92.7038 218.227C92.9254 218.227 93.1072 218.216 93.2493 218.193C93.3913 218.165 93.505 218.142 93.5902 218.125L93.9993 219.932C93.8629 219.983 93.6726 220.034 93.4283 220.085C93.1839 220.142 92.8743 220.17 92.4993 220.17C91.9311 220.17 91.3743 220.048 90.8288 219.804C90.2891 219.56 89.8402 219.188 89.4822 218.688C89.13 218.188 88.9538 217.557 88.9538 216.795V203.773ZM96.7862 224.909V206.909H98.7294V208.989H98.968C99.1158 208.761 99.3203 208.472 99.5817 208.119C99.8487 207.761 100.229 207.443 100.724 207.165C101.224 206.881 101.9 206.739 102.752 206.739C103.854 206.739 104.826 207.014 105.667 207.565C106.508 208.116 107.164 208.898 107.636 209.909C108.107 210.92 108.343 212.114 108.343 213.489C108.343 214.875 108.107 216.077 107.636 217.094C107.164 218.105 106.511 218.889 105.675 219.446C104.84 219.997 103.877 220.273 102.786 220.273C101.945 220.273 101.272 220.134 100.766 219.855C100.261 219.571 99.8714 219.25 99.5987 218.892C99.326 218.528 99.1158 218.227 98.968 217.989H98.7976V224.909H96.7862ZM98.7635 213.455C98.7635 214.443 98.9084 215.315 99.1982 216.071C99.4879 216.821 99.9112 217.409 100.468 217.835C101.025 218.256 101.707 218.466 102.513 218.466C103.354 218.466 104.056 218.244 104.619 217.801C105.187 217.352 105.613 216.75 105.897 215.994C106.187 215.233 106.332 214.386 106.332 213.455C106.332 212.534 106.19 211.705 105.906 210.966C105.627 210.222 105.204 209.634 104.636 209.202C104.073 208.764 103.366 208.545 102.513 208.545C101.695 208.545 101.008 208.753 100.451 209.168C99.8942 209.577 99.4737 210.151 99.1896 210.889C98.9055 211.622 98.7635 212.477 98.7635 213.455ZM119.661 214.648V206.909H121.673V220H119.661V217.784H119.525C119.218 218.449 118.741 219.014 118.093 219.48C117.445 219.94 116.627 220.17 115.638 220.17C114.82 220.17 114.093 219.991 113.457 219.634C112.82 219.27 112.32 218.724 111.957 217.997C111.593 217.264 111.411 216.341 111.411 215.227V206.909H113.423V215.091C113.423 216.045 113.69 216.807 114.224 217.375C114.763 217.943 115.451 218.227 116.286 218.227C116.786 218.227 117.295 218.099 117.812 217.844C118.335 217.588 118.772 217.196 119.124 216.668C119.482 216.139 119.661 215.466 119.661 214.648ZM131.05 206.909V208.614H124.266V206.909H131.05ZM126.243 203.773H128.254V216.25C128.254 216.818 128.337 217.244 128.501 217.528C128.672 217.807 128.888 217.994 129.149 218.091C129.416 218.182 129.697 218.227 129.993 218.227C130.214 218.227 130.396 218.216 130.538 218.193C130.68 218.165 130.794 218.142 130.879 218.125L131.288 219.932C131.152 219.983 130.962 220.034 130.717 220.085C130.473 220.142 130.163 220.17 129.788 220.17C129.22 220.17 128.663 220.048 128.118 219.804C127.578 219.56 127.129 219.188 126.771 218.688C126.419 218.188 126.243 217.557 126.243 216.795V203.773Z" fill="black"/>
<path d="M94 67L102.66 52L85.3398 52L94 67ZM92.5 29L92.5 53.5L95.5 53.5L95.5 29L92.5 29Z" fill="black"/>
<path d="M94 197L102.66 182L85.3398 182L94 197ZM92.5 159L92.5 183.5L95.5 183.5L95.5 159L92.5 159Z" fill="black"/>
<rect y="67" width="187" height="92" fill="black"/>
<path d="M47.1136 121V103.545H53.0114C54.3807 103.545 55.5 103.793 56.3693 104.287C57.2443 104.776 57.892 105.438 58.3125 106.273C58.733 107.108 58.9432 108.04 58.9432 109.068C58.9432 110.097 58.733 111.031 58.3125 111.872C57.8977 112.713 57.2557 113.384 56.3864 113.884C55.517 114.378 54.4034 114.625 53.0455 114.625H48.8182V112.75H52.9773C53.9148 112.75 54.6676 112.588 55.2358 112.264C55.804 111.94 56.2159 111.503 56.4716 110.952C56.733 110.395 56.8636 109.767 56.8636 109.068C56.8636 108.369 56.733 107.744 56.4716 107.193C56.2159 106.642 55.8011 106.21 55.2273 105.898C54.6534 105.58 53.892 105.42 52.9432 105.42H49.2273V121H47.1136ZM62.0753 121V107.909H64.0185V109.886H64.1548C64.3935 109.239 64.8253 108.713 65.4503 108.31C66.0753 107.906 66.7798 107.705 67.5639 107.705C67.7116 107.705 67.8963 107.707 68.1179 107.713C68.3395 107.719 68.5071 107.727 68.6207 107.739V109.784C68.5526 109.767 68.3963 109.741 68.152 109.707C67.9134 109.668 67.6605 109.648 67.3935 109.648C66.7571 109.648 66.1889 109.781 65.6889 110.048C65.1946 110.31 64.8026 110.673 64.5128 111.139C64.2287 111.599 64.0866 112.125 64.0866 112.716V121H62.0753ZM75.9247 121.273C74.7429 121.273 73.706 120.991 72.8139 120.429C71.9276 119.866 71.2344 119.08 70.7344 118.068C70.2401 117.057 69.9929 115.875 69.9929 114.523C69.9929 113.159 70.2401 111.969 70.7344 110.952C71.2344 109.935 71.9276 109.145 72.8139 108.582C73.706 108.02 74.7429 107.739 75.9247 107.739C77.1065 107.739 78.1406 108.02 79.027 108.582C79.919 109.145 80.6122 109.935 81.1065 110.952C81.6065 111.969 81.8565 113.159 81.8565 114.523C81.8565 115.875 81.6065 117.057 81.1065 118.068C80.6122 119.08 79.919 119.866 79.027 120.429C78.1406 120.991 77.1065 121.273 75.9247 121.273ZM75.9247 119.466C76.8224 119.466 77.5611 119.236 78.1406 118.776C78.7202 118.315 79.1491 117.71 79.4276 116.96C79.706 116.21 79.8452 115.398 79.8452 114.523C79.8452 113.648 79.706 112.832 79.4276 112.077C79.1491 111.321 78.7202 110.71 78.1406 110.244C77.5611 109.778 76.8224 109.545 75.9247 109.545C75.027 109.545 74.2884 109.778 73.7088 110.244C73.1293 110.71 72.7003 111.321 72.4219 112.077C72.1435 112.832 72.0043 113.648 72.0043 114.523C72.0043 115.398 72.1435 116.21 72.4219 116.96C72.7003 117.71 73.1293 118.315 73.7088 118.776C74.2884 119.236 75.027 119.466 75.9247 119.466ZM90.2109 126.182C89.2393 126.182 88.4041 126.057 87.7053 125.807C87.0064 125.562 86.424 125.239 85.9581 124.835C85.4979 124.438 85.1314 124.011 84.8587 123.557L86.4609 122.432C86.6428 122.67 86.8729 122.943 87.1513 123.25C87.4297 123.562 87.8104 123.832 88.2933 124.06C88.782 124.293 89.4212 124.409 90.2109 124.409C91.2678 124.409 92.1399 124.153 92.8274 123.642C93.5149 123.131 93.8587 122.33 93.8587 121.239V118.58H93.6882C93.5405 118.818 93.3303 119.114 93.0575 119.466C92.7905 119.812 92.4041 120.122 91.8984 120.395C91.3984 120.662 90.7223 120.795 89.87 120.795C88.8132 120.795 87.8643 120.545 87.0234 120.045C86.1882 119.545 85.5263 118.818 85.0376 117.864C84.5547 116.909 84.3132 115.75 84.3132 114.386C84.3132 113.045 84.549 111.878 85.0206 110.884C85.4922 109.884 86.1484 109.111 86.9893 108.565C87.8303 108.014 88.8018 107.739 89.9041 107.739C90.7564 107.739 91.4325 107.881 91.9325 108.165C92.4382 108.443 92.8246 108.761 93.0916 109.119C93.3643 109.472 93.5746 109.761 93.7223 109.989H93.9268V107.909H95.87V121.375C95.87 122.5 95.6143 123.415 95.103 124.119C94.5973 124.83 93.9155 125.349 93.0575 125.679C92.2053 126.014 91.2564 126.182 90.2109 126.182ZM90.1428 118.989C90.9496 118.989 91.6314 118.804 92.1882 118.435C92.745 118.065 93.1683 117.534 93.4581 116.841C93.7479 116.148 93.8928 115.318 93.8928 114.352C93.8928 113.409 93.7507 112.577 93.4666 111.855C93.1825 111.134 92.7621 110.568 92.2053 110.159C91.6484 109.75 90.9609 109.545 90.1428 109.545C89.2905 109.545 88.5803 109.761 88.0121 110.193C87.4496 110.625 87.0263 111.205 86.7422 111.932C86.4638 112.659 86.3246 113.466 86.3246 114.352C86.3246 115.261 86.4666 116.065 86.7507 116.764C87.0405 117.457 87.4666 118.003 88.0291 118.401C88.5973 118.793 89.3018 118.989 90.1428 118.989ZM99.5518 121V107.909H101.495V109.886H101.631C101.87 109.239 102.302 108.713 102.927 108.31C103.552 107.906 104.256 107.705 105.04 107.705C105.188 107.705 105.373 107.707 105.594 107.713C105.816 107.719 105.984 107.727 106.097 107.739V109.784C106.029 109.767 105.873 109.741 105.629 109.707C105.39 109.668 105.137 109.648 104.87 109.648C104.234 109.648 103.665 109.781 103.165 110.048C102.671 110.31 102.279 110.673 101.989 111.139C101.705 111.599 101.563 112.125 101.563 112.716V121H99.5518ZM112.334 121.307C111.504 121.307 110.751 121.151 110.075 120.838C109.399 120.52 108.862 120.062 108.464 119.466C108.067 118.864 107.868 118.136 107.868 117.284C107.868 116.534 108.016 115.926 108.311 115.46C108.607 114.989 109.001 114.619 109.496 114.352C109.99 114.085 110.536 113.886 111.132 113.756C111.734 113.619 112.339 113.511 112.947 113.432C113.743 113.33 114.388 113.253 114.882 113.202C115.382 113.145 115.746 113.051 115.973 112.92C116.206 112.79 116.322 112.562 116.322 112.239V112.17C116.322 111.33 116.092 110.676 115.632 110.21C115.178 109.744 114.487 109.511 113.561 109.511C112.601 109.511 111.848 109.722 111.303 110.142C110.757 110.562 110.374 111.011 110.152 111.489L108.243 110.807C108.584 110.011 109.038 109.392 109.607 108.949C110.18 108.5 110.805 108.187 111.482 108.011C112.163 107.83 112.834 107.739 113.493 107.739C113.913 107.739 114.396 107.79 114.942 107.892C115.493 107.989 116.024 108.19 116.536 108.497C117.053 108.804 117.482 109.267 117.822 109.886C118.163 110.506 118.334 111.335 118.334 112.375V121H116.322V119.227H116.22C116.084 119.511 115.857 119.815 115.538 120.139C115.22 120.463 114.797 120.739 114.268 120.966C113.74 121.193 113.095 121.307 112.334 121.307ZM112.641 119.5C113.436 119.5 114.107 119.344 114.652 119.031C115.203 118.719 115.618 118.315 115.896 117.821C116.18 117.327 116.322 116.807 116.322 116.261V114.42C116.237 114.523 116.05 114.616 115.76 114.702C115.476 114.781 115.146 114.852 114.771 114.915C114.402 114.972 114.041 115.023 113.689 115.068C113.342 115.108 113.061 115.142 112.845 115.17C112.322 115.239 111.834 115.349 111.379 115.503C110.93 115.651 110.567 115.875 110.288 116.176C110.016 116.472 109.879 116.875 109.879 117.386C109.879 118.085 110.138 118.614 110.655 118.972C111.178 119.324 111.839 119.5 112.641 119.5ZM122.005 121V107.909H123.948V109.955H124.119C124.391 109.256 124.832 108.713 125.44 108.327C126.048 107.935 126.778 107.739 127.63 107.739C128.494 107.739 129.212 107.935 129.786 108.327C130.366 108.713 130.817 109.256 131.141 109.955H131.278C131.613 109.278 132.116 108.741 132.786 108.344C133.457 107.94 134.261 107.739 135.198 107.739C136.369 107.739 137.326 108.105 138.07 108.838C138.815 109.565 139.187 110.699 139.187 112.239V121H137.175V112.239C137.175 111.273 136.911 110.582 136.383 110.168C135.854 109.753 135.232 109.545 134.516 109.545C133.596 109.545 132.883 109.824 132.377 110.381C131.871 110.932 131.619 111.631 131.619 112.477V121H129.573V112.034C129.573 111.29 129.332 110.69 128.849 110.236C128.366 109.776 127.744 109.545 126.982 109.545C126.46 109.545 125.971 109.685 125.516 109.963C125.067 110.241 124.704 110.628 124.425 111.122C124.153 111.611 124.016 112.176 124.016 112.818V121H122.005Z" fill="white"/>
<path d="M69.2273 5.54545V23H67.1136V5.54545H69.2273ZM75.2038 15.125V23H73.1925V9.90909H75.1357V11.9545H75.3061C75.6129 11.2898 76.0788 10.7557 76.7038 10.3523C77.3288 9.94318 78.1357 9.73864 79.1243 9.73864C80.0107 9.73864 80.7862 9.92045 81.451 10.2841C82.1158 10.642 82.6328 11.1875 83.0021 11.9205C83.3714 12.6477 83.5561 13.5682 83.5561 14.6818V23H81.5447V14.8182C81.5447 13.7898 81.2777 12.9886 80.7436 12.4148C80.2095 11.8352 79.4766 11.5455 78.5447 11.5455C77.9027 11.5455 77.3288 11.6847 76.8232 11.9631C76.3232 12.2415 75.9283 12.6477 75.6385 13.1818C75.3487 13.7159 75.2038 14.3636 75.2038 15.125ZM87.2315 27.9091V9.90909H89.1747V11.9886H89.4134C89.5611 11.7614 89.7656 11.4716 90.027 11.1193C90.294 10.7614 90.6747 10.4432 91.169 10.1648C91.669 9.88068 92.3452 9.73864 93.1974 9.73864C94.2997 9.73864 95.2713 10.0142 96.1122 10.5653C96.9531 11.1165 97.6094 11.8977 98.081 12.9091C98.5526 13.9205 98.7884 15.1136 98.7884 16.4886C98.7884 17.875 98.5526 19.0767 98.081 20.0938C97.6094 21.1051 96.956 21.8892 96.1207 22.446C95.2855 22.9972 94.3224 23.2727 93.2315 23.2727C92.3906 23.2727 91.7173 23.1335 91.2116 22.8551C90.706 22.571 90.3168 22.25 90.044 21.892C89.7713 21.5284 89.5611 21.2273 89.4134 20.9886H89.2429V27.9091H87.2315ZM89.2088 16.4545C89.2088 17.4432 89.3537 18.3153 89.6435 19.071C89.9332 19.821 90.3565 20.4091 90.9134 20.8352C91.4702 21.2557 92.152 21.4659 92.9588 21.4659C93.7997 21.4659 94.5014 21.2443 95.0639 20.8011C95.6321 20.3523 96.0582 19.75 96.3423 18.9943C96.6321 18.233 96.777 17.3864 96.777 16.4545C96.777 15.5341 96.6349 14.7045 96.3509 13.9659C96.0724 13.2216 95.6491 12.6335 95.081 12.2017C94.5185 11.7642 93.8111 11.5455 92.9588 11.5455C92.1406 11.5455 91.4531 11.7528 90.8963 12.1676C90.3395 12.5767 89.919 13.1506 89.6349 13.8892C89.3509 14.6222 89.2088 15.4773 89.2088 16.4545ZM110.107 17.6477V9.90909H112.118V23H110.107V20.7841H109.97C109.663 21.4489 109.186 22.0142 108.538 22.4801C107.891 22.9403 107.072 23.1705 106.084 23.1705C105.266 23.1705 104.538 22.9915 103.902 22.6335C103.266 22.2699 102.766 21.7244 102.402 20.9972C102.038 20.2642 101.857 19.3409 101.857 18.2273V9.90909H103.868V18.0909C103.868 19.0455 104.135 19.8068 104.669 20.375C105.209 20.9432 105.896 21.2273 106.732 21.2273C107.232 21.2273 107.74 21.0994 108.257 20.8438C108.78 20.5881 109.217 20.196 109.57 19.6676C109.928 19.1392 110.107 18.4659 110.107 17.6477ZM121.495 9.90909V11.6136H114.711V9.90909H121.495ZM116.688 6.77273H118.7V19.25C118.7 19.8182 118.782 20.2443 118.947 20.5284C119.117 20.8068 119.333 20.9943 119.594 21.0909C119.862 21.1818 120.143 21.2273 120.438 21.2273C120.66 21.2273 120.842 21.2159 120.984 21.1932C121.126 21.1648 121.239 21.142 121.325 21.125L121.734 22.9318C121.597 22.983 121.407 23.0341 121.163 23.0852C120.918 23.142 120.609 23.1705 120.234 23.1705C119.665 23.1705 119.109 23.0483 118.563 22.804C118.023 22.5597 117.575 22.1875 117.217 21.6875C116.864 21.1875 116.688 20.5568 116.688 19.7955V6.77273Z" fill="black"/>
</g>
<defs>
<clipPath id="clip0_1_2">
<rect width="187" height="226" fill="white"/>
</clipPath>
</defs>
</svg>
